<?xml version="1.0" encoding="UTF-8" standalone="no"?>
<svg
   xmlns:dc="http://purl.org/dc/elements/1.1/"
   xmlns:cc="http://creativecommons.org/ns#"
   xmlns:rdf="http://www.w3.org/1999/02/22-rdf-syntax-ns#"
   xmlns:svg="http://www.w3.org/2000/svg"
   xmlns="http://www.w3.org/2000/svg"
   xmlns:sodipodi="http://sodipodi.sourceforge.net/DTD/sodipodi-0.dtd"
   xmlns:inkscape="http://www.inkscape.org/namespaces/inkscape"
   width="100px"
   height="100px"
   viewBox="0 0 100 100"
   version="1.1"
   id="SVGRoot"
   sodipodi:docname="pawn_white.svg"
   inkscape:version="1.0.1 (3bc2e813f5, 2020-09-07)">
  <defs
     id="defs2817" />
  <sodipodi:namedview
     id="base"
     pagecolor="#ffffff"
     bordercolor="#666666"
     borderopacity="1.0"
     inkscape:pageopacity="0.0"
     inkscape:pageshadow="2"
     inkscape:zoom="3.1163198"
     inkscape:cx="77.485613"
     inkscape:cy="77.545579"
     inkscape:document-units="px"
     inkscape:current-layer="layer1"
     inkscape:document-rotation="0"
     showgrid="false"
     inkscape:window-width="2560"
     inkscape:window-height="1382"
     inkscape:window-x="0"
     inkscape:window-y="32"
     inkscape:window-maximized="1" />
  <metadata
     id="metadata2820">
    <rdf:RDF>
      <cc:Work
         rdf:about="">
        <dc:format>image/svg+xml</dc:format>
        <dc:type
           rdf:resource="http://purl.org/dc/dcmitype/StillImage" />
        <dc:title></dc:title>
      </cc:Work>
    </rdf:RDF>
  </metadata>
  <g
     inkscape:label="Layer 1"
     inkscape:groupmode="layer"
     id="layer1">
    <path
       id="path3442"
       d="m 50.659591,12.0292 c -5.496697,0 -9.958502,4.461805 -9.958502,9.959315 0,2.203711 0.732135,4.263756 1.944785,5.913901 -4.859529,2.793803 -8.168749,8.00073 -8.168749,14.00554 0,5.064884 2.345756,9.559155 5.991011,12.527469 C 33.001491,57.069327 22.0292,68.246162 22.0292,87.9708 h 57.260782 c 0,-19.724638 -10.972291,-30.901473 -18.438936,-33.535375 3.645255,-2.968314 5.9902,-7.462585 5.9902,-12.527469 0,-6.003998 -3.30922,-11.211737 -8.168749,-14.00554 1.213462,-1.650145 1.944786,-3.709379 1.944786,-5.913901 8.12e-4,-5.49751 -4.460994,-9.959315 -9.957692,-9.959315 z"
       inkscape:connector-curvature="0"
       style="fill:#ffffff;stroke:#000000;stroke-width:4.0584;stroke-linecap:round" />
  </g>
</svg>
