<?xml version="1.0" encoding="UTF-8" standalone="no"?>
<svg
   xmlns:dc="http://purl.org/dc/elements/1.1/"
   xmlns:cc="http://creativecommons.org/ns#"
   xmlns:rdf="http://www.w3.org/1999/02/22-rdf-syntax-ns#"
   xmlns:svg="http://www.w3.org/2000/svg"
   xmlns="http://www.w3.org/2000/svg"
   xmlns:sodipodi="http://sodipodi.sourceforge.net/DTD/sodipodi-0.dtd"
   xmlns:inkscape="http://www.inkscape.org/namespaces/inkscape"
   width="100px"
   height="100px"
   viewBox="0 0 100 100"
   version="1.1"
   id="SVGRoot"
   sodipodi:docname="queen_white.svg"
   inkscape:version="1.0.1 (3bc2e813f5, 2020-09-07)">
  <defs
     id="defs2817" />
  <sodipodi:namedview
     id="base"
     pagecolor="#ffffff"
     bordercolor="#666666"
     borderopacity="1.0"
     inkscape:pageopacity="0.0"
     inkscape:pageshadow="2"
     inkscape:zoom="3.1163198"
     inkscape:cx="77.485613"
     inkscape:cy="77.545579"
     inkscape:document-units="px"
     inkscape:current-layer="layer1"
     inkscape:document-rotation="0"
     showgrid="false"
     inkscape:window-width="2560"
     inkscape:window-height="1382"
     inkscape:window-x="0"
     inkscape:window-y="32"
     inkscape:window-maximized="1" />
  <metadata
     id="metadata2820">
    <rdf:RDF>
      <cc:Work
         rdf:about="">
        <dc:format>image/svg+xml</dc:format>
        <dc:type
           rdf:resource="http://purl.org/dc/dcmitype/StillImage" />
        <dc:title></dc:title>
      </cc:Work>
    </rdf:RDF>
  </metadata>
  <g
     inkscape:label="Layer 1"
     inkscape:groupmode="layer"
     id="layer1">
    <g
       id="g80246"
       transform="matrix(0.78649615,0,0,0.78649615,-595.76712,-1397.5221)">
      <path
         id="path80248"
         d="m 774.919,1851.994 c 29.278,-5.167 72.082,-3.021 92.749,2.146 0,0 10.279,-44.535 6.384,-50.369 -3.896,-5.834 -21.965,27.034 -21.965,27.034 l -3.409,-42.42 -16.167,39.813 c 0,0 -5.767,-35.353 -11.218,-35.132 -5.45,0.221 -10.586,36.016 -10.586,36.016 0,0 -8.621,-33.79 -15.661,-33.454 -7.167,0.336 -4.42,35.808 -4.42,35.808 0,0 -16.775,-31.037 -20.702,-25.898 -3.927,5.139 4.995,46.456 4.995,46.456 z"
         inkscape:connector-curvature="0"
         style="fill:#ffffff;stroke:#ffffff;stroke-width:1;stroke-linejoin:round" />
      <path
         id="path80250"
         d="m 773.782,1846.813 c 0,7.295 1.277,11.128 7.33,17.286 1.759,2.693 4.382,3.224 2.24,8.555 -5.669,3.647 -5.795,11.139 -5.795,11.139 -1.755,5.218 2.016,11.11 2.016,11.11 24.564,3.647 56.479,3.66 82.178,0.379 0,0 3.396,-4.502 2.146,-9.974 0,0 0.248,-8.375 -4.157,-12.149 -1.006,-6.72 1.084,-6.411 3.727,-10.115 4.032,-6.158 5.338,-7.295 5.338,-14.59 -32.124,-5.471 -62.9,-7.113 -95.023,-1.641 z"
         inkscape:connector-curvature="0"
         style="fill:#ffffff;stroke:#ffffff;stroke-width:1;stroke-linejoin:round" />
      <path
         id="path80252"
         d="m 882.54,1808.408 c 0,5.827 -4.724,10.551 -10.551,10.551 -5.827,0 -10.551,-4.724 -10.551,-10.551 0,-5.828 4.724,-10.552 10.551,-10.552 5.827,0 10.551,4.725 10.551,10.552 z"
         inkscape:connector-curvature="0"
         style="fill:#ffffff;stroke:#ffffff;stroke-width:0.1896;stroke-linecap:round;stroke-linejoin:round" />
      <path
         id="path80254"
         d="m 781.234,1808.299 c 0,5.828 -4.724,10.552 -10.551,10.552 -5.826,0 -10.55,-4.724 -10.55,-10.552 0,-5.828 4.724,-10.552 10.55,-10.552 5.827,0 10.551,4.724 10.551,10.552 z"
         inkscape:connector-curvature="0"
         style="fill:#ffffff;stroke:#ffffff;stroke-width:0.1896;stroke-linecap:round;stroke-linejoin:round" />
      <path
         id="path80256"
         d="m 776.975,1808.47 c 0,3.388 -2.747,6.135 -6.135,6.135 -3.388,0 -6.135,-2.747 -6.135,-6.135 0,-3.389 2.747,-6.135 6.135,-6.135 3.388,0 6.135,2.746 6.135,6.135 z"
         inkscape:connector-curvature="0"
         style="fill:#ffffff;stroke:#000000;stroke-width:1.63;stroke-linecap:round;stroke-linejoin:round" />
      <path
         id="path80258"
         d="m 831.868,1794.409 c 0,5.828 -4.724,10.552 -10.551,10.552 -5.826,0 -10.55,-4.724 -10.55,-10.552 0,-5.828 4.724,-10.552 10.55,-10.552 5.827,0 10.551,4.725 10.551,10.552 z"
         inkscape:connector-curvature="0"
         style="fill:#ffffff;stroke:#ffffff;stroke-width:0.1896;stroke-linecap:round;stroke-linejoin:round" />
      <path
         id="path80260"
         d="m 827.584,1794.666 c 0,3.388 -2.746,6.135 -6.134,6.135 -3.389,0 -6.135,-2.747 -6.135,-6.135 0,-3.388 2.746,-6.135 6.135,-6.135 3.388,-10e-4 6.134,2.746 6.134,6.135 z"
         inkscape:connector-curvature="0"
         style="fill:#ffffff;stroke:#000000;stroke-width:1.63;stroke-linecap:round;stroke-linejoin:round" />
      <path
         id="path80262"
         d="m 878.193,1808.47 c 0,3.388 -2.746,6.135 -6.134,6.135 -3.389,0 -6.135,-2.747 -6.135,-6.135 0,-3.389 2.746,-6.135 6.135,-6.135 3.388,-10e-4 6.134,2.746 6.134,6.135 z"
         inkscape:connector-curvature="0"
         style="fill:#ffffff;stroke:#000000;stroke-width:1.63;stroke-linecap:round;stroke-linejoin:round" />
      <path
         id="path80264"
         d="m 805.856,1797.692 c 0,5.827 -4.724,10.551 -10.55,10.551 -5.827,0 -10.551,-4.724 -10.551,-10.551 0,-5.828 4.724,-10.552 10.551,-10.552 5.827,10e-4 10.55,4.725 10.55,10.552 z"
         inkscape:connector-curvature="0"
         style="fill:#ffffff;stroke:#ffffff;stroke-width:0.1896;stroke-linecap:round;stroke-linejoin:round" />
      <path
         id="path80266"
         d="m 801.512,1797.733 c 0,3.389 -2.746,6.135 -6.134,6.135 -3.389,0 -6.135,-2.747 -6.135,-6.135 0,-3.388 2.746,-6.135 6.135,-6.135 3.388,0 6.134,2.747 6.134,6.135 z"
         inkscape:connector-curvature="0"
         style="fill:#ffffff;stroke:#000000;stroke-width:1.63;stroke-linecap:round;stroke-linejoin:round" />
      <path
         id="path80268"
         d="m 858.132,1799.208 c 0,5.827 -4.724,10.551 -10.55,10.551 -5.827,0 -10.551,-4.724 -10.551,-10.551 0,-5.828 4.724,-10.552 10.551,-10.552 5.826,0 10.55,4.724 10.55,10.552 z"
         inkscape:connector-curvature="0"
         style="fill:#ffffff;stroke:#ffffff;stroke-width:0.1896;stroke-linecap:round;stroke-linejoin:round" />
      <path
         id="path80270"
         d="m 853.656,1799.267 c 0,3.389 -2.747,6.135 -6.135,6.135 -3.388,0 -6.135,-2.747 -6.135,-6.135 0,-3.388 2.747,-6.135 6.135,-6.135 3.388,0 6.135,2.746 6.135,6.135 z"
         inkscape:connector-curvature="0"
         style="fill:#ffffff;stroke:#000000;stroke-width:1.63;stroke-linecap:round;stroke-linejoin:round" />
      <path
         id="path80272"
         d="m 780.042,1851.416 c 26.072,-4.602 64.412,-4.602 82.815,0 l 6.135,-36.811 -21.471,33.743 v -42.946 l -16.87,41.412 -9.201,-46.013 -9.202,46.013 -16.869,-42.946 v 44.479 l -21.471,-33.743 z"
         inkscape:connector-curvature="0"
         style="fill:#ffffff;stroke:#000000;stroke-width:5;stroke-linejoin:round" />
      <path
         id="path80274"
         d="m 780.042,1851.416 c 0,6.135 4.602,6.135 7.668,12.27 3.067,4.602 3.067,3.067 1.534,10.736 -4.601,3.067 -4.601,7.669 -4.601,7.669 -4.602,4.602 1.533,7.669 1.533,7.669 19.938,3.067 50.609,3.067 70.546,0 0,0 4.602,-3.067 0,-7.669 0,0 1.534,-4.602 -3.066,-7.669 -1.534,-7.669 -1.534,-6.135 1.533,-10.736 3.067,-6.135 7.668,-6.135 7.668,-12.27 -26.071,-4.602 -56.743,-4.602 -82.815,0 z"
         inkscape:connector-curvature="0"
         style="fill:#ffffff;stroke:#000000;stroke-width:5;stroke-linejoin:round" />
      <path
         id="path80276"
         d="m 787.71,1863.686 c 10.735,-3.067 56.744,-3.067 67.479,0"
         inkscape:connector-curvature="0"
         style="fill:none;stroke:#000000;stroke-width:5;stroke-linecap:round;stroke-linejoin:round" />
      <path
         id="path80278"
         d="m 789.244,1874.422 c 18.403,-3.067 46.009,-3.067 64.412,0"
         inkscape:connector-curvature="0"
         style="fill:none;stroke:#000000;stroke-width:5;stroke-linecap:round;stroke-linejoin:round" />
      <path
         id="path80280"
         d="m 784.643,1882.091 c 15.336,-3.067 56.743,-3.067 72.079,0"
         inkscape:connector-curvature="0"
         style="fill:none;stroke:#000000;stroke-width:5;stroke-linecap:round;stroke-linejoin:round" />
    </g>
  </g>
</svg>
