<?xml version="1.0" encoding="UTF-8" standalone="no"?>
<svg
   xmlns:dc="http://purl.org/dc/elements/1.1/"
   xmlns:cc="http://creativecommons.org/ns#"
   xmlns:rdf="http://www.w3.org/1999/02/22-rdf-syntax-ns#"
   xmlns:svg="http://www.w3.org/2000/svg"
   xmlns="http://www.w3.org/2000/svg"
   xmlns:sodipodi="http://sodipodi.sourceforge.net/DTD/sodipodi-0.dtd"
   xmlns:inkscape="http://www.inkscape.org/namespaces/inkscape"
   width="100px"
   height="100px"
   viewBox="0 0 100 100"
   version="1.1"
   id="SVGRoot"
   sodipodi:docname="king_black.svg"
   inkscape:version="1.0.1 (3bc2e813f5, 2020-09-07)">
  <defs
     id="defs2817" />
  <sodipodi:namedview
     id="base"
     pagecolor="#ffffff"
     bordercolor="#666666"
     borderopacity="1.0"
     inkscape:pageopacity="0.0"
     inkscape:pageshadow="2"
     inkscape:zoom="3.1163198"
     inkscape:cx="77.485613"
     inkscape:cy="82.358949"
     inkscape:document-units="px"
     inkscape:current-layer="layer1"
     inkscape:document-rotation="0"
     showgrid="false"
     inkscape:window-width="2560"
     inkscape:window-height="1382"
     inkscape:window-x="0"
     inkscape:window-y="32"
     inkscape:window-maximized="1" />
  <metadata
     id="metadata2820">
    <rdf:RDF>
      <cc:Work
         rdf:about="">
        <dc:format>image/svg+xml</dc:format>
        <dc:type
           rdf:resource="http://purl.org/dc/dcmitype/StillImage" />
        <dc:title></dc:title>
      </cc:Work>
    </rdf:RDF>
  </metadata>
  <g
     inkscape:label="Layer 1"
     inkscape:groupmode="layer"
     id="layer1">
    <g
       id="g70004"
       transform="matrix(0.79800748,0,0,0.79800748,-992.05945,-335.23745)">
      <g
         id="g67079"
         transform="matrix(3.677456,0,0,3.6776632,-684.87287,-2670.1206)">
        <path
           id="path67081"
           d="m 541.391,848.41 v -5.625"
           inkscape:connector-curvature="0"
           style="fill:#ffffff;stroke:#ffffff;stroke-width:1.6315;stroke-linecap:round" />
        <path
           id="path67083"
           d="m 541.391,859.948 c 0,0 4.775,-7.569 3.275,-10.569 0,0 -1.275,-2.431 -3.275,-2.431 -2,0 -3.275,2.569 -3.275,2.569 -1.5,2.999 3.275,10.431 3.275,10.431"
           inkscape:connector-curvature="0"
           style="fill:#ffffff;stroke:#ffffff;stroke-width:0.4079" />
        <path
           id="path67085"
           d="m 530.734,869.841 c 5.5,3.5 15.157,3.431 20.657,-0.069 l -0.069,-6.313 c 0,0 7.352,-3.608 4.352,-9.607 -4,-6.5 -13.5,-3.5 -16,4 l 1.717,1.921 v -3.5 c -3.637,-6.127 -10.734,-8.44 -14.421,-2.833 -3,6 3.627,10 3.627,10 z"
           inkscape:connector-curvature="0"
           style="fill:#ffffff;stroke:#ffffff;stroke-width:0.4079;stroke-linecap:round;stroke-linejoin:round" />
        <path
           id="path67087"
           d="m 538.891,844.785 h 5"
           inkscape:connector-curvature="0"
           style="fill:#ffffff;stroke:#ffffff;stroke-width:1.6315;stroke-linecap:round" />
      </g>
      <g
         id="g67061"
         transform="matrix(3.067229,0,0,3.067558,-329.09607,-2142.8556)">
        <path
           id="path67063"
           d="m 533.135,844.656 v -5.625"
           inkscape:connector-curvature="0"
           style="fill:none;stroke:#000000;stroke-width:0.489;stroke-linecap:round" />
        <path
           id="path67065"
           d="m 533.135,858.031 c 0,0 4.5,-7.5 3,-10.5 0,0 -1,-2.5 -3,-2.5 -2,0 -3,2.5 -3,2.5 -1.5,3 3,10.5 3,10.5"
           inkscape:connector-curvature="0"
           style="stroke:#000000;stroke-width:0.489" />
        <path
           id="path67067"
           d="m 522.135,870.031 c 5.5,3.5 15.5,3.5 21,0 v -7 c 0,0 9,-4.5 6,-10.5 -4,-6.5 -13.5,-3.5 -16,4 v 3.5 -3.5 c -3.5,-7.5 -13,-10.5 -16,-4 -3,6 5,10 5,10 z"
           inkscape:connector-curvature="0"
           style="stroke:#000000;stroke-width:0.489;stroke-linecap:round;stroke-linejoin:round" />
        <path
           id="path67069"
           d="m 530.635,841.031 h 5"
           inkscape:connector-curvature="0"
           style="fill:none;stroke:#000000;stroke-width:0.489;stroke-linecap:round" />
        <path
           id="path67071"
           d="m 522.135,862.531 c 5.5,-2.5 15.5,-2.5 21,0.5"
           inkscape:connector-curvature="0"
           style="fill:none;stroke:#ffffff;stroke-width:0.489;stroke-linecap:round" />
        <path
           id="path67073"
           d="m 522.135,870.031 c 5.5,-2.5 15.5,-2.5 21,0"
           inkscape:connector-curvature="0"
           style="fill:none;stroke:#ffffff;stroke-width:0.489;stroke-linecap:round;stroke-linejoin:round" />
        <path
           id="path67075"
           d="m 522.135,866.531 c 5.5,-2 15.5,-2 21,0"
           inkscape:connector-curvature="0"
           style="fill:none;stroke:#ffffff;stroke-width:0.489;stroke-linecap:round;stroke-linejoin:round" />
        <path
           id="path67077"
           d="m 542.635,862.531 c 0,0 8.5,-4 6.026,-9.653 -3.879,-5.85 -13.026,-1.847 -15.526,4.653 l 0.012,2.097 -0.012,-2.097 c -2.5,-6.5 -12.593,-10.503 -15.503,-4.653 -2.497,5.653 4.848,9 4.848,9"
           inkscape:connector-curvature="0"
           style="fill:none;stroke:#ffffff;stroke-width:0.489;stroke-linecap:round;stroke-linejoin:round" />
      </g>
    </g>
  </g>
</svg>
