<?xml version="1.0" encoding="UTF-8" standalone="no"?>
<svg
   xmlns:dc="http://purl.org/dc/elements/1.1/"
   xmlns:cc="http://creativecommons.org/ns#"
   xmlns:rdf="http://www.w3.org/1999/02/22-rdf-syntax-ns#"
   xmlns:svg="http://www.w3.org/2000/svg"
   xmlns="http://www.w3.org/2000/svg"
   xmlns:sodipodi="http://sodipodi.sourceforge.net/DTD/sodipodi-0.dtd"
   xmlns:inkscape="http://www.inkscape.org/namespaces/inkscape"
   width="100px"
   height="100px"
   viewBox="0 0 100 100"
   version="1.1"
   id="SVGRoot"
   sodipodi:docname="pawn_black.svg"
   inkscape:version="1.0.1 (3bc2e813f5, 2020-09-07)">
  <defs
     id="defs2817" />
  <sodipodi:namedview
     id="base"
     pagecolor="#ffffff"
     bordercolor="#666666"
     borderopacity="1.0"
     inkscape:pageopacity="0.0"
     inkscape:pageshadow="2"
     inkscape:zoom="3.1163198"
     inkscape:cx="77.485613"
     inkscape:cy="82.358949"
     inkscape:document-units="px"
     inkscape:current-layer="layer1"
     inkscape:document-rotation="0"
     showgrid="false"
     inkscape:window-width="2560"
     inkscape:window-height="1382"
     inkscape:window-x="0"
     inkscape:window-y="32"
     inkscape:window-maximized="1" />
  <metadata
     id="metadata2820">
    <rdf:RDF>
      <cc:Work
         rdf:about="">
        <dc:format>image/svg+xml</dc:format>
        <dc:type
           rdf:resource="http://purl.org/dc/dcmitype/StillImage" />
        <dc:title></dc:title>
      </cc:Work>
    </rdf:RDF>
  </metadata>
  <g
     inkscape:label="Layer 1"
     inkscape:groupmode="layer"
     id="layer1">
    <path
       id="path17042"
       d="m 50.659593,12.0292 c -5.496698,0 -9.958503,4.461806 -9.958503,9.959315 0,2.204524 0.732135,4.263756 1.944785,5.913902 -4.859529,2.792991 -8.168748,8.000731 -8.168748,14.00554 0,5.064072 2.345755,9.558345 5.991011,12.527471 C 33.001492,57.06933 22.0292,68.246165 22.0292,87.9708 h 57.260786 c 0,-19.725446 -10.972292,-30.90147 -18.438937,-33.535372 3.645255,-2.968314 5.990199,-7.462587 5.990199,-12.527471 0,-6.003998 -3.30922,-11.211737 -8.168749,-14.00554 1.213462,-1.650146 1.944786,-3.709378 1.944786,-5.913902 8.11e-4,-5.497509 -4.460994,-9.959315 -9.957692,-9.959315 z"
       inkscape:connector-curvature="0"
       style="stroke:#ffffff;stroke-width:4.0584;stroke-linecap:round" />
  </g>
</svg>
