<?xml version="1.0" encoding="UTF-8" standalone="no"?>
<svg
   xmlns:dc="http://purl.org/dc/elements/1.1/"
   xmlns:cc="http://creativecommons.org/ns#"
   xmlns:rdf="http://www.w3.org/1999/02/22-rdf-syntax-ns#"
   xmlns:svg="http://www.w3.org/2000/svg"
   xmlns="http://www.w3.org/2000/svg"
   xmlns:sodipodi="http://sodipodi.sourceforge.net/DTD/sodipodi-0.dtd"
   xmlns:inkscape="http://www.inkscape.org/namespaces/inkscape"
   width="100px"
   height="100px"
   viewBox="0 0 100 100"
   version="1.1"
   id="SVGRoot"
   sodipodi:docname="bishop_black.svg"
   inkscape:version="1.0.1 (3bc2e813f5, 2020-09-07)">
  <defs
     id="defs2817" />
  <sodipodi:namedview
     id="base"
     pagecolor="#ffffff"
     bordercolor="#666666"
     borderopacity="1.0"
     inkscape:pageopacity="0.0"
     inkscape:pageshadow="2"
     inkscape:zoom="3.1163198"
     inkscape:cx="77.485613"
     inkscape:cy="82.358949"
     inkscape:document-units="px"
     inkscape:current-layer="layer1"
     inkscape:document-rotation="0"
     showgrid="false"
     inkscape:window-width="2560"
     inkscape:window-height="1382"
     inkscape:window-x="0"
     inkscape:window-y="32"
     inkscape:window-maximized="1" />
  <metadata
     id="metadata2820">
    <rdf:RDF>
      <cc:Work
         rdf:about="">
        <dc:format>image/svg+xml</dc:format>
        <dc:type
           rdf:resource="http://purl.org/dc/dcmitype/StillImage" />
        <dc:title></dc:title>
      </cc:Work>
    </rdf:RDF>
  </metadata>
  <g
     inkscape:label="Layer 1"
     inkscape:groupmode="layer"
     id="layer1">
    <g
       id="g63721"
       transform="matrix(0.82552887,0,0,0.82552887,135.20296,-49.336018)">
      <g
         id="g60798"
         transform="matrix(3.4156897,0,0,3.3289941,-1005.3432,-2662.945)">
        <path
           id="path60800"
           d="m 250.786,848.362 c 2.471,-1.234 10.115,0.127 13.5,-2.303 3.385,2.431 11.125,0.963 13.352,2.303 2.202,1.325 1.942,0.902 2.556,2.589 -0.677,0.972 -1.054,1.593 -2.408,1.107 -3.385,-0.972 -10.115,0.458 -13.5,-1 -3.385,1.459 -10.115,0.028 -13.5,1 -1.354,0.486 -1.731,-0.21 -2.408,-1.183 1.353,-1.945 0.057,-1.34 2.408,-2.513 z"
           inkscape:connector-curvature="0"
           style="fill:#ffffff;stroke:#ffffff;stroke-width:0.4448;stroke-linejoin:round" />
        <path
           id="path60802"
           d="m 256.786,845.557 c 2.5,2.5 12.5,2.5 15,0 0.5,-1.5 0,-2 0,-2 0,-2.5 -2.062,-4 -2.062,-4 5.5,-1.5 5.562,-11.5 -5.438,-15.5 -11,4 -10.722,14.152 -5.222,15.652 0,0 -2.352,0.969 -2.352,3.469 0,0 -0.426,0.879 0.074,2.379 z"
           inkscape:connector-curvature="0"
           style="fill:#ffffff;stroke:#ffffff;stroke-width:0.4448;stroke-linejoin:round" />
        <path
           id="path60804"
           d="m 267.311,822.841 c 0,1.636 -1.402,2.962 -3.132,2.962 -1.73,0 -3.132,-1.326 -3.132,-2.962 0,-1.636 1.402,-2.962 3.132,-2.962 1.729,10e-4 3.132,1.327 3.132,2.962 z"
           inkscape:connector-curvature="0"
           style="fill:#ffffff;stroke:#ffffff;stroke-width:0.3651;stroke-linejoin:round" />
        <path
           id="path60806"
           d="m 259.286,839.557 h 10"
           inkscape:connector-curvature="0"
           style="fill:#ff8bff;stroke:#ff78ff;stroke-width:0.4448;stroke-linecap:round" />
        <path
           id="path60810"
           d="m 264.285,829.057 v 5"
           inkscape:connector-curvature="0"
           style="fill:#ff8bff;stroke:#ff78ff;stroke-width:0.4448;stroke-linecap:round" />
        <path
           id="path60812"
           d="m 261.786,831.557 h 5"
           inkscape:connector-curvature="0"
           style="fill:#ff8bff;stroke:#ff78ff;stroke-width:0.4448;stroke-linecap:round" />
      </g>
      <g
         id="g60782"
         transform="matrix(3.067229,0,0,3.067558,-913.48194,-2443.602)">
        <path
           id="path60784"
           d="m 250.786,849.557 c 3.385,-0.972 10.115,0.431 13.5,-2 3.385,2.431 10.115,1.028 13.5,2 0,0 1.646,0.542 3,2 -0.677,0.972 -1.646,0.986 -3,0.5 -3.385,-0.973 -10.114,0.458 -13.5,-1 -3.385,1.458 -10.115,0.027 -13.5,1 -1.354,0.486 -2.323,0.472 -3,-0.5 1.354,-1.944 3,-2 3,-2 z"
           inkscape:connector-curvature="0"
           style="stroke:#000000;stroke-width:0.489;stroke-linejoin:round" />
        <path
           id="path60786"
           d="m 256.786,845.557 c 2.5,2.5 12.5,2.5 15,0 0.5,-1.5 0,-2 0,-2 0,-2.5 -2.5,-4 -2.5,-4 5.5,-1.5 6,-11.5 -5,-15.5 -11,4 -10.5,14 -5,15.5 0,0 -2.5,1.5 -2.5,4 0,0 -0.5,0.5 0,2 z"
           inkscape:connector-curvature="0"
           style="stroke:#000000;stroke-width:0.489;stroke-linejoin:round" />
        <path
           id="path60788"
           d="m 266.786,821.557 c 0,1.381 -1.119,2.5 -2.5,2.5 -1.381,0 -2.5,-1.119 -2.5,-2.5 0,-1.381 1.119,-2.5 2.5,-2.5 1.38,0 2.5,1.12 2.5,2.5 z"
           inkscape:connector-curvature="0"
           style="stroke:#000000;stroke-width:0.489;stroke-linejoin:round" />
        <path
           id="path60790"
           d="m 259.286,839.557 h 10"
           inkscape:connector-curvature="0"
           style="fill:none;stroke:#ffffff;stroke-width:0.489;stroke-linecap:round" />
        <path
           id="path60792"
           d="m 256.786,843.557 h 15"
           inkscape:connector-curvature="0"
           style="fill:none;stroke:#ffffff;stroke-width:0.489;stroke-linecap:round" />
        <path
           id="path60794"
           d="m 264.286,829.057 v 5"
           inkscape:connector-curvature="0"
           style="fill:none;stroke:#ffffff;stroke-width:0.489;stroke-linecap:round" />
        <path
           id="path60796"
           d="m 261.786,831.557 h 5"
           inkscape:connector-curvature="0"
           style="fill:none;stroke:#ffffff;stroke-width:0.489;stroke-linecap:round" />
      </g>
    </g>
  </g>
</svg>
