<?xml version="1.0" encoding="UTF-8" standalone="no"?>
<svg
   xmlns:dc="http://purl.org/dc/elements/1.1/"
   xmlns:cc="http://creativecommons.org/ns#"
   xmlns:rdf="http://www.w3.org/1999/02/22-rdf-syntax-ns#"
   xmlns:svg="http://www.w3.org/2000/svg"
   xmlns="http://www.w3.org/2000/svg"
   xmlns:sodipodi="http://sodipodi.sourceforge.net/DTD/sodipodi-0.dtd"
   xmlns:inkscape="http://www.inkscape.org/namespaces/inkscape"
   width="100px"
   height="100px"
   viewBox="0 0 100 100"
   version="1.1"
   id="SVGRoot"
   sodipodi:docname="knight_white.svg"
   inkscape:version="1.0.1 (3bc2e813f5, 2020-09-07)">
  <defs
     id="defs2817" />
  <sodipodi:namedview
     id="base"
     pagecolor="#ffffff"
     bordercolor="#666666"
     borderopacity="1.0"
     inkscape:pageopacity="0.0"
     inkscape:pageshadow="2"
     inkscape:zoom="3.1163198"
     inkscape:cx="77.485613"
     inkscape:cy="72.732209"
     inkscape:document-units="px"
     inkscape:current-layer="layer1"
     inkscape:document-rotation="0"
     showgrid="false"
     inkscape:window-width="2560"
     inkscape:window-height="1382"
     inkscape:window-x="0"
     inkscape:window-y="32"
     inkscape:window-maximized="1" />
  <metadata
     id="metadata2820">
    <rdf:RDF>
      <cc:Work
         rdf:about="">
        <dc:format>image/svg+xml</dc:format>
        <dc:type
           rdf:resource="http://purl.org/dc/dcmitype/StillImage" />
        <dc:title></dc:title>
      </cc:Work>
    </rdf:RDF>
  </metadata>
  <g
     inkscape:label="Layer 1"
     inkscape:groupmode="layer"
     id="layer1">
    <g
       id="g60673"
       transform="matrix(0.86023972,0,0,0.86023972,-291.97208,-1566.2167)">
      <path
         id="path60675"
         d="m 395.847,1836.29 c 37.531,4.162 54.641,26.149 53.007,94.792 h -75.886 c -0.893,-36.918 30.719,-21.425 24.182,-68.821"
         inkscape:connector-curvature="0" />
      <path
         id="path60677"
         d="m 405.986,1863.176 c 1.371,9.71 -16.586,24.578 -25.311,30.02 -10.697,6.671 -10.052,14.485 -17.828,13.342 -4.119,-5.333 0.434,-5.904 -3.566,-3.335 -3.565,0 -14.273,3.335 -14.262,-13.342 0,-6.671 18.894,-40.026 18.894,-40.026 0,0 5.296,-6.345 5.703,-11.674 -2.588,-3.317 -1.068,-6.671 -1.068,-10.006 3.565,-3.336 12.661,8.339 12.661,8.339 h 4.274 c 0,0 3.68,-6.645 9.807,-10.007 3.566,0 3.566,10.007 3.566,10.007"
         inkscape:connector-curvature="0" />
      <path
         id="path60679"
         d="m 354.993,1886.955 c 0,0.902 -0.731,1.634 -1.634,1.634 -0.902,0 -1.634,-0.732 -1.634,-1.634 0,-0.903 0.731,-1.634 1.634,-1.634 0.903,0 1.634,0.731 1.634,1.634 z"
         inkscape:connector-curvature="0"
         style="fill:#f2f2f2" />
      <path
         id="path60681"
         d="m 372.75,1855.085 c -1.354,2.345 -3.085,3.88 -3.867,3.429 -0.781,-0.452 -0.317,-2.718 1.036,-5.063 1.354,-2.345 3.085,-3.88 3.867,-3.429 0.781,0.451 0.318,2.718 -1.036,5.063 z"
         inkscape:connector-curvature="0"
         style="fill:#f2f2f2" />
      <path
         id="path60683"
         d="m 404.181,1837.598 -0.98,3.596 1.798,0.327 c 10.136,1.56 20.667,7.303 28.025,21.226 7.359,13.923 9.551,35.835 7.926,68.335 l -0.164,0.027 h 5.72 v -0.027 c 1.644,-32.873 -2.865,-55.088 -10.622,-69.766 -7.757,-14.678 -18.92,-21.682 -30.027,-23.391 z"
         inkscape:connector-curvature="0" />
      <path
         id="path60685"
         d="m 396.952,1839.187 c 32.206,3.068 50.609,24.541 49.076,88.959 h -70.546 c 0,-27.608 30.672,-19.939 24.538,-64.419"
         inkscape:connector-curvature="0"
         style="fill:#ffffff;stroke:#000000;stroke-linecap:round" />
      <path
         id="path60687"
         d="m 403.086,1863.728 c 1.179,8.931 -17.032,22.604 -24.538,27.608 -9.202,6.135 -8.647,13.322 -15.336,12.271 -3.195,-2.896 4.335,-9.318 0,-9.203 -3.067,0 0.575,3.778 -3.067,6.135 -3.067,0 -12.278,3.068 -12.269,-12.27 0,-6.135 18.403,-36.811 18.403,-36.811 0,0 5.784,-5.835 6.134,-10.737 -2.227,-3.05 -1.534,-6.135 -1.534,-9.203 3.067,-3.067 9.202,7.669 9.202,7.669 h 6.135 c 0,0 2.398,-6.11 7.668,-9.203 3.067,0 3.067,9.203 3.067,9.203"
         inkscape:connector-curvature="0"
         style="fill:#ffffff;stroke:#000000;stroke-linecap:round;stroke-linejoin:round" />
      <path
         id="path60689"
         d="m 358.612,1886.735 c 0,0.847 -0.687,1.534 -1.534,1.534 -0.847,0 -1.534,-0.687 -1.534,-1.534 0,-0.847 0.687,-1.534 1.534,-1.534 0.847,0 1.534,0.686 1.534,1.534 z"
         inkscape:connector-curvature="0"
         style="stroke:#000000;stroke-width:0.326;stroke-linecap:round;stroke-linejoin:round" />
      <path
         id="path60691"
         d="m 375.276,1856.826 c -1.271,2.201 -2.895,3.642 -3.628,3.218 -0.733,-0.423 -0.298,-2.551 0.972,-4.751 1.27,-2.2 2.895,-3.642 3.628,-3.218 0.734,0.423 0.298,2.55 -0.972,4.751 z"
         inkscape:connector-curvature="0"
         style="stroke:#000000;stroke-width:0.326;stroke-linecap:round;stroke-linejoin:round" />
      <path
         id="path60693"
         d="m 403.845,1840.414 -0.92,3.375 1.687,0.307 c 9.513,1.464 19.396,6.854 26.301,19.92 6.905,13.066 9.892,32.666 8.367,63.167 l -0.153,1.534 h 5.368 v -1.534 c 1.542,-30.85 -3.617,-50.734 -10.897,-64.509 -7.28,-13.774 -17.756,-20.348 -28.18,-21.952 z"
         inkscape:connector-curvature="0" />
    </g>
  </g>
</svg>
